<svg data-v-0dd9719b="" version="1.0" xmlns="http://www.w3.org/2000/svg" xmlns:xlink="http://www.w3.org/1999/xlink" width="100%" height="100%" viewBox="0 0 340.000000 250.000000" preserveAspectRatio="xMidYMid meet" color-interpolation-filters="sRGB" style="margin: auto;">   <g data-v-0dd9719b="" fill="#b722ff" class="icon-text-wrapper icon-svg-group iconsvg" transform="translate(154.39999961853027,110.47661876678467)"><g class="iconsvg-imagesvg" transform="translate(0,0)" mask="url(#186c37f5-a05a-47cb-aa3a-ad46a34b24f1)"><g><rect fill="#b722ff" fill-opacity="0" stroke-width="2" x="0" y="0" width="31.199999999999974" height="29.046763427145667" class="image-rect"></rect> <svg filter="url(#colors916499211)" x="0" y="0" width="31.199999999999974" height="29.046763427145667" filtersec="colorsf7112857294" class="image-svg-svg primary" style="overflow: visible;"><svg xmlns="http://www.w3.org/2000/svg" viewBox="0 3.309999942779541 96.00581359863281 89.38008880615234" x="0px" y="0px"><title>Playground</title><g><path d="M75.42,49.71a9.28,9.28,0,1,0-9.27-9.28A9.29,9.29,0,0,0,75.42,49.71Zm0-16.56a7.28,7.28,0,1,1-7.27,7.28A7.29,7.29,0,0,1,75.42,33.15Z"></path><path d="M95.71,26.38,76.42,7.09V4.31a1,1,0,0,0-2,0V7.1L55.14,26.38a1,1,0,0,0,.71,1.71h2.59V42.14h-12a1,1,0,0,0,0,2h1.32v7.91A14.37,14.37,0,0,0,39,58.72l-1.24,2.15V43.14a1,1,0,0,0-1-1H31.08a1,1,0,0,0-1,1v1.29H7.68V43.14a1,1,0,0,0-1-1H1a1,1,0,0,0-1,1V91.69a1,1,0,0,0,1,1H21.27a14.29,14.29,0,0,0,8.81-3v2a1,1,0,0,0,1,1h5.69a1,1,0,0,0,.94-.67,4.08,4.08,0,0,0,2.26.67H67.5a1,1,0,0,0,1-1V78.58a1,1,0,0,0-1-1H64.94V60.34h4.83V91.69a1,1,0,0,0,2,0V89.8h7.31v1.89a1,1,0,0,0,2,0V60.34H85.9V91.69a1,1,0,0,0,1,1h4.51a1,1,0,0,0,1-1V28.09H95A1,1,0,0,0,95.71,26.38ZM55.39,44.14h3v7.44h-3Zm-5.62,0h3.62v7.44a27.86,27.86,0,0,0-3.62.1Zm-17.69,0h3.69V64.33l-3.69,6.39ZM7.68,46.43h22.4V49H7.68ZM26.14,75.12h-.81V51h4.75v23.2l-2.94,5.09V76.12A1,1,0,0,0,26.14,75.12Zm-1,2v2.27H12.63V77.12Zm-10.7-2V51h8.89V75.12ZM7.68,51h4.76V75.12h-.81a1,1,0,0,0-1,1v4.27a1,1,0,0,0,1,1H25.9a5.44,5.44,0,0,1-4.61,2.54H19.54A3.38,3.38,0,0,0,17,85.08l-1.53,1.74a1.28,1.28,0,0,1-1,.43H7.68ZM3.19,90.69H2V44.14H5.68V87.25A2.72,2.72,0,0,0,3.19,90.69Zm32.58,0H32.08v-3c1.15-1.31,1.56-2.18,3.69-5.87Zm0-18.47v5.63c-4.17,7.22-4.35,7.73-5.69,9.11a12.3,12.3,0,0,1-8.81,3.73c-15.9,0-15.49,0-15.59,0a.72.72,0,0,1,0-1.42c.1,0-.18,0,8.84,0A3.26,3.26,0,0,0,17,88.14L18.5,86.4a1.37,1.37,0,0,1,1-.47h1.75a7.5,7.5,0,0,0,6.47-3.73l13-22.48a12.32,12.32,0,0,1,10.64-6.14h7.06v4.76H51.36a7.5,7.5,0,0,0-6.48,3.74L41.45,68H40A4.21,4.21,0,0,0,35.77,72.22ZM58.44,60.34V68H43.76l2.85-4.93a5.51,5.51,0,0,1,4.75-2.74Zm4.5,30.35H40a2.2,2.2,0,0,1-2.2-2.2V72.22A2.2,2.2,0,0,1,40,70h23Zm0-22.68h-2.5V60.34h2.5ZM66.5,79.58V90.69H64.94V79.58ZM79.08,87.8H71.77V84.69h7.31Zm0-5.11H71.77V79.58h7.31Zm0-5.11H71.77V74.46h7.31Zm0-5.12H71.77V69.35h7.31Zm0-5.11H71.77V64.24h7.31Zm0-5.11H71.77v-1.9h7.31ZM90.41,90.69H87.9V60.34h2.51Zm0-32.35h-30V54.77h30Zm0-5.57h-30V28.09h30ZM58.26,26.09,75.42,8.93,92.59,26.09Z"></path><path d="M50.36,73.44a6.92,6.92,0,1,0,6.91,6.91A6.92,6.92,0,0,0,50.36,73.44Zm0,11.83a4.92,4.92,0,1,1,4.91-4.92A4.93,4.93,0,0,1,50.36,85.27Z"></path><path d="M60.2,74a1,1,0,1,0-1-1A1,1,0,0,0,60.2,74Z"></path><path d="M40.45,74a1,1,0,0,0,1.15-1,1,1,0,0,0-1-1,1,1,0,0,0-1,1A1,1,0,0,0,40.45,74Z"></path><path d="M60.2,87.11a1,1,0,1,0,1,1A1,1,0,0,0,60.2,87.11Z"></path><path d="M40.61,87.11a1,1,0,1,0,1,1A1,1,0,0,0,40.61,87.11Z"></path></g></svg></svg> <defs><filter id="colors916499211"><feColorMatrix type="matrix" values="0 0 0 0 0.86328125  0 0 0 0 0.76171875  0 0 0 0 0.421875  0 0 0 1 0" class="icon-fecolormatrix"></feColorMatrix></filter> <filter id="colorsf7112857294"><feColorMatrix type="matrix" values="0 0 0 0 0.99609375  0 0 0 0 0.99609375  0 0 0 0 0.99609375  0 0 0 1 0" class="icon-fecolormatrix"></feColorMatrix></filter> <filter id="colorsb7723088734"><feColorMatrix type="matrix" values="0 0 0 0 0  0 0 0 0 0  0 0 0 0 0  0 0 0 1 0" class="icon-fecolormatrix"></feColorMatrix></filter></defs></g><rect v-gra="id" width="43.20000076293945" height="41.046762466430664" transform="translate(-6, -6)" style="pointer-events:none;" fill="url(#JfTHk6-frlkEJsQ57k74U)"></rect></g> <g transform="translate(38.20000076293945,14.523381233215332)"><g data-gra="path-name" fill-rule="" class="tp-name iconsvg-namesvg" fill="url(#cc8c6e9f-1fec-450e-88b1-6cb0eb725b8d)"><g transform="scale(1)"><g><path d="" transform="translate(0, 0)"></path></g> <!----> <!----> <!----> <!----> <!----> <!----> <!----></g></g> <!----></g></g><defs v-gra="od"><linearGradient x1="0" y1="1" x2="0" y2="0" id="cc8c6e9f-1fec-450e-88b1-6cb0eb725b8d"><stop offset="0%" stop-color="#b722ff"></stop><stop offset="100%" stop-color="#22d4fe"></stop></linearGradient><filter id="42443b3f1de60f6b6fd3b6a9844b4764" filterUnits="objectBoundingBox"><feColorMatrix type="matrix" values="0 0 0 0 0.99609375  0 0 0 0 0.99609375  0 0 0 0 0.99609375  0 0 0 1 0"></feColorMatrix></filter></defs><defs v-gra="id"><filter id="0ddd290f-a917-4413-ba95-da9870b4a053" filterUnits="userSpaceOnUse"><feColorMatrix type="matrix" values="0 0 0 0 0.99609375  0 0 0 0 0.99609375  0 0 0 0 0.99609375  0 0 0 1 0"></feColorMatrix></filter><linearGradient x1="0" y1="1" x2="0" y2="0" id="JfTHk6-frlkEJsQ57k74U"><stop offset="0%" stop-color="#b722ff"></stop><stop offset="100%" stop-color="#22d4fe"></stop></linearGradient><filter id="42443b3f1de60f6b6fd3b6a9844b4764" filterUnits="objectBoundingBox"><feColorMatrix type="matrix" values="0 0 0 0 0.99609375  0 0 0 0 0.99609375  0 0 0 0 0.99609375  0 0 0 1 0"></feColorMatrix></filter></defs><mask v-gra="im" id="186c37f5-a05a-47cb-aa3a-ad46a34b24f1"><g class="iconsvg-imagesvg" filter="url(#0ddd290f-a917-4413-ba95-da9870b4a053)"><g><rect fill="#b722ff" fill-opacity="0" stroke-width="2" x="0" y="0" width="31.199999999999974" height="29.046763427145667" class="image-rect"></rect> <svg x="0" y="0" width="31.199999999999974" height="29.046763427145667" filtersec="colorsf7112857294" class="image-svg-svg primary" style="overflow: visible;"><svg xmlns="http://www.w3.org/2000/svg" viewBox="0 3.309999942779541 96.00581359863281 89.38008880615234" x="0px" y="0px"><title>Playground</title><g><path d="M75.42,49.71a9.28,9.28,0,1,0-9.27-9.28A9.29,9.29,0,0,0,75.42,49.71Zm0-16.56a7.28,7.28,0,1,1-7.27,7.28A7.29,7.29,0,0,1,75.42,33.15Z"></path><path d="M95.71,26.38,76.42,7.09V4.31a1,1,0,0,0-2,0V7.1L55.14,26.38a1,1,0,0,0,.71,1.71h2.59V42.14h-12a1,1,0,0,0,0,2h1.32v7.91A14.37,14.37,0,0,0,39,58.72l-1.24,2.15V43.14a1,1,0,0,0-1-1H31.08a1,1,0,0,0-1,1v1.29H7.68V43.14a1,1,0,0,0-1-1H1a1,1,0,0,0-1,1V91.69a1,1,0,0,0,1,1H21.27a14.29,14.29,0,0,0,8.81-3v2a1,1,0,0,0,1,1h5.69a1,1,0,0,0,.94-.67,4.08,4.08,0,0,0,2.26.67H67.5a1,1,0,0,0,1-1V78.58a1,1,0,0,0-1-1H64.94V60.34h4.83V91.69a1,1,0,0,0,2,0V89.8h7.31v1.89a1,1,0,0,0,2,0V60.34H85.9V91.69a1,1,0,0,0,1,1h4.51a1,1,0,0,0,1-1V28.09H95A1,1,0,0,0,95.71,26.38ZM55.39,44.14h3v7.44h-3Zm-5.62,0h3.62v7.44a27.86,27.86,0,0,0-3.62.1Zm-17.69,0h3.69V64.33l-3.69,6.39ZM7.68,46.43h22.4V49H7.68ZM26.14,75.12h-.81V51h4.75v23.2l-2.94,5.09V76.12A1,1,0,0,0,26.14,75.12Zm-1,2v2.27H12.63V77.12Zm-10.7-2V51h8.89V75.12ZM7.68,51h4.76V75.12h-.81a1,1,0,0,0-1,1v4.27a1,1,0,0,0,1,1H25.9a5.44,5.44,0,0,1-4.61,2.54H19.54A3.38,3.38,0,0,0,17,85.08l-1.53,1.74a1.28,1.28,0,0,1-1,.43H7.68ZM3.19,90.69H2V44.14H5.68V87.25A2.72,2.72,0,0,0,3.19,90.69Zm32.58,0H32.08v-3c1.15-1.31,1.56-2.18,3.69-5.87Zm0-18.47v5.63c-4.17,7.22-4.35,7.73-5.69,9.11a12.3,12.3,0,0,1-8.81,3.73c-15.9,0-15.49,0-15.59,0a.72.72,0,0,1,0-1.42c.1,0-.18,0,8.84,0A3.26,3.26,0,0,0,17,88.14L18.5,86.4a1.37,1.37,0,0,1,1-.47h1.75a7.5,7.5,0,0,0,6.47-3.73l13-22.48a12.32,12.32,0,0,1,10.64-6.14h7.06v4.76H51.36a7.5,7.5,0,0,0-6.48,3.74L41.45,68H40A4.21,4.21,0,0,0,35.77,72.22ZM58.44,60.34V68H43.76l2.85-4.93a5.51,5.51,0,0,1,4.75-2.74Zm4.5,30.35H40a2.2,2.2,0,0,1-2.2-2.2V72.22A2.2,2.2,0,0,1,40,70h23Zm0-22.68h-2.5V60.34h2.5ZM66.5,79.58V90.69H64.94V79.58ZM79.08,87.8H71.77V84.69h7.31Zm0-5.11H71.77V79.58h7.31Zm0-5.11H71.77V74.46h7.31Zm0-5.12H71.77V69.35h7.31Zm0-5.11H71.77V64.24h7.31Zm0-5.11H71.77v-1.9h7.31ZM90.41,90.69H87.9V60.34h2.51Zm0-32.35h-30V54.77h30Zm0-5.57h-30V28.09h30ZM58.26,26.09,75.42,8.93,92.59,26.09Z"></path><path d="M50.36,73.44a6.92,6.92,0,1,0,6.91,6.91A6.92,6.92,0,0,0,50.36,73.44Zm0,11.83a4.92,4.92,0,1,1,4.91-4.92A4.93,4.93,0,0,1,50.36,85.27Z"></path><path d="M60.2,74a1,1,0,1,0-1-1A1,1,0,0,0,60.2,74Z"></path><path d="M40.45,74a1,1,0,0,0,1.15-1,1,1,0,0,0-1-1,1,1,0,0,0-1,1A1,1,0,0,0,40.45,74Z"></path><path d="M60.2,87.11a1,1,0,1,0,1,1A1,1,0,0,0,60.2,87.11Z"></path><path d="M40.61,87.11a1,1,0,1,0,1,1A1,1,0,0,0,40.61,87.11Z"></path></g></svg></svg> <defs><filter id="colors916499211"><feColorMatrix type="matrix" values="0 0 0 0 0.86328125  0 0 0 0 0.76171875  0 0 0 0 0.421875  0 0 0 1 0" class="icon-fecolormatrix"></feColorMatrix></filter> <filter id="colorsf7112857294"><feColorMatrix type="matrix" values="0 0 0 0 0.99609375  0 0 0 0 0.99609375  0 0 0 0 0.99609375  0 0 0 1 0" class="icon-fecolormatrix"></feColorMatrix></filter> <filter id="colorsb7723088734"><feColorMatrix type="matrix" values="0 0 0 0 0  0 0 0 0 0  0 0 0 0 0  0 0 0 1 0" class="icon-fecolormatrix"></feColorMatrix></filter></defs></g></g></mask></svg>